# xmcd CD Database Entry
#
# Track frame offsets:
# 150
# 26272
# 48443
# 77860
# 97019
# 114928
# 138487
# 159981
# 180220
# 201848
# 216108
# 232076
# 256369
# 278352
# 295993
#
# Disc length: 4193 seconds
#
# Revision: 1
# Processed by: cddbd v1.4b41PL1 Copyright (c) Steve Scherf et al.
# Submitted via: tcd 2.0b
#
DISCID=ca105f0f
DTITLE=BBKing - Deuces wild
DYEAR=1900
DGENRE=
TTITLE0=If you love me (Van Morrison)
TTITLE1=The thrill is gone (Tracy Chapman)
TTITLE2=Rock me baby (Eric Clapton)
TTITLE3=Please send me someone to love (Mick Hucknall)
TTITLE4=Baby I love you (Bonnie Raitt)
TTITLE5=Ain't nobody home (D'Angelo)
TTITLE6=There must be a better world somewhere (Dr John)
TTITLE7=Confessin' the blues (Marty Stuart)
TTITLE8=Hummingbird (Dionne Warwick)
TTITLE9=Bring it come (Paul Carrack)
TTITLE10=Paying the cost to be the boss (Rolling Stones)
TTITLE11=Let the good times roll (Zuchero)
TTITLE12=Dangerous mood (Joe Cocker)
TTITLE13=Keep it coming (Heavy D)
TTITLE14=Cryin' won't help you baby (David Gilmour and Paul Carrack)
EXTD=
EXTT0=
EXTT1=
EXTT2=
EXTT3=
EXTT4=
EXTT5=
EXTT6=
EXTT7=
EXTT8=
EXTT9=
EXTT10=
EXTT11=
EXTT12=
EXTT13=
EXTT14=
PLAYORDER=
